<?xml version="1.0" encoding="UTF-8"?>
<svg id="Layer_1" xmlns="http://www.w3.org/2000/svg" version="1.1" viewBox="0 0 2575.1 1710.7">
  <!-- Generator: Adobe Illustrator 29.1.0, SVG Export Plug-In . SVG Version: 2.1.0 Build 142)  -->
  <defs>
    <style>
      .st0 {
        fill: #fcbe29;
      }

      .st1 {
        fill: #fcc444;
      }

      .st2 {
        fill: #b0ac34;
      }

      .st3 {
        fill: #ffcd49;
      }

      .st4 {
        fill: #fcc135;
      }

      .st5 {
        fill: #919c38;
      }

      .st6 {
        fill: #fcbe26;
      }

      .st7 {
        fill: #ffe6b5;
      }

      .st8 {
        fill: #ffd649;
      }

      .st9 {
        fill: #ffd64d;
      }

      .st10 {
        fill: #ffe8b8;
      }

      .st11 {
        fill: #909c39;
      }

      .st12 {
        fill: #ffefcf;
      }

      .st13 {
        fill: #fdd554;
      }

      .st14 {
        fill: #fcc12f;
      }

      .st15 {
        fill: #ffca3f;
      }

      .st16 {
        fill: #ffd546;
      }

      .st17 {
        fill: #fbbf1b;
      }

      .st18 {
        fill: #fdc62a;
      }

      .st19 {
        fill: #fdc836;
      }

      .st20 {
        fill: #ffd754;
      }

      .st21 {
        fill: #ffdd47;
      }

      .st22 {
        fill: #fcc12d;
      }

      .st23 {
        fill: #ffcc46;
      }

      .st24 {
        fill: #fabe16;
      }

      .st25 {
        fill: #99a037;
      }

      .st26 {
        fill: #ffd64c;
      }

      .st27 {
        fill: #f7b52f;
      }

      .st28 {
        fill: #fcbd15;
      }

      .st29 {
        fill: #b1ad35;
      }

      .st30 {
        fill: #ffd234;
      }

      .st31 {
        fill: #ffd236;
      }

      .st32 {
        fill: #fcbd1e;
      }

      .st33 {
        fill: #b3ae38;
      }

      .st34 {
        fill: #f7b52e;
      }

      .st35 {
        fill: #ffd840;
      }

      .st36 {
        fill: #ffd84a;
      }

      .st37 {
        fill: #ffde49;
      }

      .st38 {
        fill: #ffde48;
      }

      .st39 {
        fill: #ffd843;
      }

      .st40 {
        fill: #fcbe21;
      }

      .st41 {
        fill: #ffca38;
      }

      .st42 {
        fill: #fcc134;
      }

      .st43 {
        fill: #fdc93d;
      }

      .st44 {
        fill: #ffd647;
      }

      .st45 {
        fill: #fdc630;
      }

      .st46 {
        fill: #929d3a;
      }

      .st47 {
        fill: #ffd64a;
      }

      .st48 {
        fill: #979d37;
      }

      .st49 {
        fill: #fdcc51;
      }

      .st50 {
        fill: #fdc62d;
      }

      .st51 {
        fill: #ffd652;
      }

      .st52 {
        fill: #ffd841;
      }

      .st53 {
        fill: #ffd858;
      }

      .st54 {
        fill: #fabb29;
      }

      .st55 {
        fill: #acab43;
      }

      .st56 {
        fill: #ffd43b;
      }

      .st57 {
        fill: #ffda48;
      }

      .st58 {
        fill: #f7b631;
      }

      .st59 {
        fill: #fcbf2b;
      }

      .st60 {
        fill: #ffd43a;
      }

      .st61 {
        fill: #fbbc15;
      }

      .st62 {
        fill: #fdd949;
      }

      .st63 {
        fill: #ffcc4c;
      }

      .st64 {
        fill: #fdc731;
      }

      .st65 {
        fill: #ffcb3c;
      }

      .st66 {
        fill: #ffc728;
      }

      .st67 {
        fill: #99a038;
      }

      .st68 {
        fill: #fbbe16;
      }

      .st69 {
        fill: #a3a938;
      }

      .st70 {
        fill: #ffda61;
      }

      .st71 {
        fill: #e0dec0;
      }

      .st72 {
        fill: #b0ad35;
      }

      .st73 {
        fill: #fdc956;
      }

      .st74 {
        fill: #929d39;
      }

      .st75 {
        fill: #fcc549;
      }

      .st76 {
        fill: #ffd544;
      }

      .st77 {
        fill: #fabc2e;
      }

      .st78 {
        fill: #ffe5ae;
      }

      .st79 {
        fill: #b2ad35;
      }

      .st80 {
        fill: #fdc737;
      }

      .st81 {
        fill: #ffd85c;
      }

      .st82 {
        fill: #fcbd19;
      }

      .st83 {
        fill: #fdd93d;
      }

      .st84 {
        fill: #fdda42;
      }

      .st85 {
        fill: #fcc23b;
      }

      .st86 {
        fill: #919c39;
      }

      .st87 {
        fill: #ffc937;
      }

      .st88 {
        fill: #aead47;
      }

      .st89 {
        fill: #a7ac53;
      }

      .st90 {
        fill: #afaf52;
      }

      .st91 {
        fill: #fdd942;
      }

      .st92 {
        fill: #ffd756;
      }
    </style>
  </defs>
  <path class="st30" d="M2575.1,232.9c-9.9.7-4.1,5.5-7,8.9-7.8-2.9-9.1-3.9-19-2.2-.4-3.5,4.8-6.2-4-6.7.9-2.7,7.2-1.6,10-2.8s8.5-9.6,10-4.2c1.2,4.3.2,5.2,10,4.8v2.2Z"/>
  <path class="st21" d="M2285.2,780.1c5.1,24.6-28.5,46.8-74,45.5-4.1-24.1,31.4-45,74-45.5Z"/>
  <path class="st21" d="M152,543.7c-44.9,1.3-75-23.4-72-46.6,44.9,1.1,77.5,21.6,72,46.6Z"/>
  <path class="st2" d="M1881.3,662.4c-7.2.7-13.3,3-18.2,6.7-14.4,5.1.2-4,8.2-7.8,7.8-5.3,15.1-10.9,22-16.7l4-3.3,4-3.3q3.3-2.5,0,0l-4,3.3-4,3.3c-5.5,5.5-12.5,11.1-22,14.4-.6-1.3-1.3-2.8-2-4.4,1.8-15.2,7.3-26.1,30-36.1,13.7-6,21.7-8.7,24,3.4,3.7,20.1-5.8,34.9-42,40.5Z"/>
  <path class="st2" d="M220,773.4l2,4.4c.1,1,.2,2.4,0,3.3,2.5,2.4,3,3.5-2,2.2-10.4-5.8-21.8-10.9-34-15.5-3.2-.7-5.2-1.8-6-3.3-2.9-.8-3.5-.8-2,0l8,3.3c12.7,4.3,23.3,9.5,32,15.5-29.7,1.7-56-5.3-73.9-18.3-12.7-9.2-12.2-13.8,11-13.9,28.6-.1,57.1,6,64.9,22.2Z"/>
  <path class="st69" d="M1869.3,198.4c-.2.9,1.1,1.2,4,1.1,7.4-1.2,24-3.5,24.1,2.7.2,10.6-35.4,9.3-48.1,9.5-3.6,1.6-4.7.9-2-1.1-3.6-4-4.4-2.1-10.1-5-10.8-5.4-21.4-21.8.7-18.1s14,11.8,16.4,16.4c5.7-4.6,2.2-11.3,3.5-16.9s11.8-20.9,21.4-22.6c16.2-2.9,11.4,10,9.1,15.1s-10.7,13.7-19,18.9Z"/>
  <path class="st24" d="M1127.6,841.1c-9.9-8.8,4.5-28.6,20.9-15.5s11.6,30.3,1.1,33.8c-11.4,3.8-51.6-7.4-57-13.9s7.5-11.4,19-9.5,14,6.1,15.9,5Z"/>
  <path class="st68" d="M2443.1,149.6c-5.2-5.2-6.7-19.9,7.3-20.8,23.1-1.4,22,35.4,14.8,38-14.1,5.2-79.7-13.9-54.9-22.7,14.2-5,31.6,6.2,32.8,5.4Z"/>
  <path class="st68" d="M667.8,286.1c-1-3.2-3.9-4.7-4.2-8.3-.8-13.7,20.8-16.6,28-2.2,2.7,5.3,5.7,26.3-3.9,28.8s-60-10.1-57.6-18.7,28.8-3.7,37.6.3Z"/>
  <path class="st61" d="M2355.2,414.9c-8.3,2.1-33.8,7.8-40.2,2.6-7.6-6.3,15-6.7,21.2-7s5.8,1,5-1.6c-1.2-4-29.2-7-37.1-9.4-29.4-9.1-3.6-18.4,17-7.8,1.8-1.2-20.6-16.4-9.5-23.1,14.5-8.7,19.1,25.1,21.5,28.6l8.6-13c14.2-4.4,14.7,3.8,12.9,9.9-2.5,8.7-18,13.2,2.5,19.7,3,1.5,1.7,2.2-2,1.1Z"/>
  <path class="st61" d="M184,99.7c-8.3,2.1-33.8,7.8-40.2,2.6s15-6.7,21.2-7,5.8,1,5-1.6c-1.2-4-29.2-7-37.1-9.4-29.4-9.1-3.6-18.4,17-7.8,1.8-1.2-20.6-16.4-9.5-23.1s19.1,25.1,21.5,28.6l8.6-13c14.2-4.4,14.7,3.8,12.9,9.9-2.5,8.7-18,13.2,2.5,19.7,3,1.5,1.7,2.2-2,1.1Z"/>
  <path class="st28" d="M649.8,663.5c-1.9-4.1-8-6.4-9.5-10.8s-2.5-15,9.6-10.9c7.5,2.6,9.4,22.9,12,28.3,6.8.9,3.1-4.2,4.4-7,5-10.7,21.3-8.6,19.4,1.8-1.7,9.3-19.3,15.2,0,21.8,1.6,1.7-.4,2.5-6,2.2-.7.3-.8,1.3-3.4,1.9-5.3,1.3-28.8,2.6-31.7.4-8.8-6.9,20.8-7.7,27.1-8.4-6.7-7-53.1-8.3-51.5-18.7,1.2-8,22.7-1.9,29.5.4,1.3,0,1.3-.3,0-1.1Z"/>
  <path class="st82" d="M2399.1,591.4c-2.7,1.8-2,2.2,2,1.1,22.6-6.2,29,2.4,14.6,4.2s-13.5,0-22.5,1.4c-1.5.4-1.5.8,0,1.1,16.1,3.3,16.7,8.9-.5,7.6-10.8-.8-15.9-7.4-25.5-.9-2,.4-2.6,0-2-1.1-13.9-12.4,8.4-23.4,6-4.4,4.1,2.6,13.6-11.4,14.7-12.4,11.3-9.6,20.8-3.8,13.3,3.5Z"/>
  <path class="st37" d="M920.8,671.4c3.1-.3,15.5,1.7,19,2.7,8.9,2.4,16,7.7,18.9,12.8,5.6,10.1.3,10.5-16.1,6.7-10.5-2.4-18-7.6-21.5-13.6s-4.6-8.2-.3-8.6Z"/>
  <path class="st38" d="M1682.9,759.2c11.9-.8,1.8,13-2.6,16.4s-32.9,13.3-32.9,5.1c0-9.6,18.6-20.4,35.6-21.5Z"/>
  <path class="st79" d="M1828.9,728.1c25.8-2.4,22.5,27.8-5,21.2-19.1-4.6-14.8-19.3,5-21.2Z"/>
  <path class="st29" d="M161.5,363c22.2-1.3,22.4,22.1,1.5,22-24.1,0-26.8-20.6-1.5-22Z"/>
  <path class="st29" d="M2270.6,47.7c22.2-1.3,22.4,22.1,1.5,22-24.1,0-26.8-20.6-1.5-22Z"/>
  <path class="st72" d="M2087.3,27.5c-1.7-.3-1.7-.6,0-1.1,1.4-1.4,1.4-2.2,0-2.2-.8-1.8-.8-3.7,0-5.6,2-4.6.7-5.7,6.3-10.4,14.2-11.7,24.6-11.6,21.8,4.3s-12.7,14.9-28.1,14.9Z"/>
  <path class="st17" d="M2525.1,522.6c-.8.8,0,1.2,2,1.1,5.2,0,12,1.1,11,4.6-1.4,5-31,3.5-32.8,2-3.4-2.7,10.7-19.5,20.9-14.4,1.8,1.5.2,5.2-1.1,6.7Z"/>
  <path class="st40" d="M1899.7,764.3c2.7.9,8.2,0,11.6.2.9,2.2-3.8,2.9-4,5s4.7,3.7,4,6.1c-4.4.9-9.6-2.4-12.7-2.1s-5.7,4.3-11.3,3.2c-.8-.4,3.6-5.7,2-6.6s-7.2,1.3-6-1.7c11.7-2,5.2-4,11-8.3,2.8.6,4.3,3.8,5.4,4.2Z"/>
  <path class="st31" d="M802,451.4c1,.6,8-.4,9.7,1.8-9.6,3.1-6.7,2.8-6.8,7.1s-8.3-.5-10.6-.8c-3.3-.4-7,1.3-10.6.9,3.6-4.2,0-5.2-2-8.9,2.7-.2,7.8.5,9.7-.2s.2-8.3,8.4-4.9,1.1,4.4,2.1,4.9Z"/>
  <path class="st30" d="M2013.3,932.2c1.1.6-2.7,7.2,10,5.6,1.4,2.9-5.3,2.6-6,4.1s.6,4.8,0,7c-8.6-2-9.4-4.4-20-2.2,5.1-5.5-4.3-6.8-4-7.2,1.2-1.9,7.6-1.3,10-2.2s5-7.8,10-5Z"/>
  <path class="st30" d="M2219.2,720.1c1.1.6-2.7,7.2,10,5.6,1.4,2.9-5.3,2.6-6,4.1s.6,4.8,0,7c-8.6-2-9.4-4.4-20-2.2,5.1-5.5-4.3-6.8-4-7.2,1.2-1.9,7.6-1.3,10-2.2s5-7.8,10-5Z"/>
  <path class="st30" d="M1777.4,258.4c1.1.6-2.7,7.2,10,5.6,1.4,2.9-5.3,2.6-6,4.1s.6,4.8,0,7c-8.6-2-9.4-4.4-20-2.2,5.1-5.5-4.3-6.8-4-7.2,1.2-1.9,7.6-1.3,10-2.2s5-7.8,10-5Z"/>
  <path class="st33" d="M341.4,26.6c15.2-1.3,16.2,14.2,1.5,14.2-14.3,0-16.3-12.9-1.5-14.2Z"/>
  <path class="st30" d="M952,78.4c2,.7,12.4-.8,6.4,2.5s-5.9,2.3-4.7,7.7c-5.2,1.3-8.9-3-11-3.1s-5.5,2.7-9,2c1.3-4.5,1.9-5.6-4-8.9,11.9,3,13.5-6.7,15-6.7,6.4,0,5.4,5.9,7.2,6.5Z"/>
  <path class="st30" d="M1381.8,746.7c2,.7,12.4-.8,6.4,2.5s-5.9,2.3-4.7,7.7c-5.2,1.3-8.9-3-11-3.1s-5.5,2.7-9,2c1.3-4.5,1.9-5.6-4-8.9,11.9,3,13.5-6.7,15-6.7,6.4,0,5.4,5.9,7.2,6.5Z"/>
  <path class="st30" d="M2103.5,453.6c2,.7,12.4-.8,6.4,2.5-5,2.7-5.9,2.3-4.7,7.7-5.2,1.3-8.9-3-11-3.1s-5.5,2.7-9,2c1.3-4.5,1.9-5.6-4-8.9,11.9,3,13.5-6.7,15-6.7,6.4,0,5.4,5.9,7.2,6.5Z"/>
  <path class="st60" d="M829.7,852.3c1.5,4.9,3.5,5.9,12,4.4.8,2.2-3.6,2.8-3.8,4.9s2.8,4.1,1.8,6.2c-10.6-4.2-7.8-2.5-18,0,3-4.3-5.7-5.5-6.1-6.1-2.5-4,4.9-2.2,7.1-3.8s-.1-6.2,6.9-5.6Z"/>
  <path class="st56" d="M843.8,18.6c1.1.5,7-1.6,7.9-1.1,1.5,2.1-3.2,3.9-3.3,5s3.6,2.9,3.3,4.4c-.7,3.6-9.1-1.5-11-1.4s-4.6,3.8-9,3.1c3.2-5.6.5-3.7-6-7.2,8.4-2,9.5-3,10-8.3,6.4-1,7.2,5.2,8.1,5.5Z"/>
  <path class="st0" d="M855.7,734.6c1.2,2.1-3.3,2.8-3.7,4.1s4.9,2.6,3.7,4.8c-7.4-.8-10.2-1.6-15,2.2-4.4-4.1-1.4-5.4-11-7.2-1.2-3.2,6.8-.9,8-1.6s-1.5-5.6,3-6.7c4,5.6,4.4,5.5,15,4.4Z"/>
  <path class="st0" d="M1659.4,896.7c1.2,2.1-3.3,2.8-3.7,4.1s4.9,2.6,3.7,4.8c-7.4-.8-10.2-1.6-15,2.2-4.4-4.1-1.4-5.4-11-7.2-1.2-3.2,6.8-.9,8-1.6s-1.5-5.6,3-6.7c4,5.6,4.4,5.5,15,4.4Z"/>
  <path class="st0" d="M170,896.7c1.2,2.1-3.3,2.8-3.7,4.1s4.9,2.6,3.7,4.8c-7.4-.8-10.2-1.6-15,2.2-4.4-4.1-1.4-5.4-11-7.2-1.2-3.2,6.8-.9,8-1.6s-1.5-5.6,3-6.7c4,5.6,4.4,5.5,15,4.4Z"/>
  <path class="st59" d="M600,480.3c1.7.9,12-2,11.8.7s-4,1.7-4,3.3,5.1,2.8,4.1,5c-3.3.8-7.9-2.3-9-2.2-1.9.1-2.6,5-9,3.3,2.6-6.4-6.6-4.9-8-5.6-4.3-2.3,7.1-2.9,7.7-3.5,1.3-1.1-.2-3.9.3-5.4,6.2-.9,5.2,3.9,6.2,4.3Z"/>
  <path class="st6" d="M431.9,78.6c2.3,1.5-2.4,6.6,12,3.3,1.5,2-3.3,4-3.3,5s5.3,3.8,3.3,5-5.8-2-7-2c-2.3,0-4.7,3.9-9,3.1,2.6-6.4-6.6-4.8-8-5.6-4.3-2.3,7.1-2.9,7.7-3.5s-.7-8.5,4.3-5.4Z"/>
  <path class="st32" d="M2157.3,242.8c1.1.5,7.3-1.7,9.9-1.1,1.2,2.1-3.3,2.8-3.7,4.1s4.9,2.6,3.7,4.8c-8.3-1.8-9.9-.7-16,2.2,2.8-6.2-7-5-8-5.6s-.3-3.2,0-3.3c2-1.1,11.1,3.2,8-6.7,4.4,0,5.4,5.3,6,5.5Z"/>
  <path class="st84" d="M2306.7,504c8.6,4.8-4.2,13.3-13,8.3-9.3-5.3,4.6-13,13-8.3Z"/>
  <path class="st80" d="M320.3,435.8c2.5.8,6.7,0,9.6.2,1.8,3-3.4,2-4.9,3.3s-1.5,5.6-4.1,5.5-6.7-3.4-13-1.1c3.5-3.8-.7-4.4-2-7.8,6.8.2,9.2.8,8-3.3,5-.9,4.7,2.6,6.4,3.1Z"/>
  <path class="st91" d="M713.3,242.6c-9.1,5-22.7-3.5-14.5-7.5s22.5,3.1,14.5,7.5Z"/>
  <path class="st83" d="M2464.5,831.4c15.9-2.6,17.5,11.1,1.7,9.8s-9.7-8.5-1.7-9.8Z"/>
  <path class="st77" d="M1927.3,511.5c-10.6-2.1-11.4.2-20,2.2-.9-1.9,2.6-4.4,2.2-5.9s-10.1-2.8-6.2-5.2,8,2.4,10.9,2.3,1.5-3.8,6.1-3.4.9,3.7,1.4,4.7c1,2.1,6.6,2.6,5.6,5.2Z"/>
  <path class="st54" d="M2513.2,374.9c.9.5,7.2-.3,7.9,0,5.2,2.8-6.4,3.7-7.1,4.3-2.5,2,2,6.1-3.9,5.6-3.7-1.2-2.4-4.3-4-5.6-2.4-1.9-11.5,0-9-2.7s13.6,1,10-7.2c7.5-.8,5.2,5,6.1,5.5Z"/>
  <path class="st45" d="M681.8,145.2c1.7,1.2-4.5,4.6,10,3.3,1.7,2.9-5.9,2.7-6.2,4.1s4.5,5.4-2.5,4.6-2.9-1.6-4.6-1.8-6,1.2-6.7.8,5.5-5-4-6.1l14-5Z"/>
  <path class="st58" d="M1759.5,478.1c.9.5,9.3-.2,11.9,0-3.2,5-11.4,1.9-8,10-8.9-1-2.5-6.4-16-4.4-2.7-5,6.2-2.4,7.9-5.1s-3.4-6.1,1.1-6,2.7,5.2,3.1,5.5Z"/>
  <path class="st58" d="M1599.5,41.9c.9.5,9.3-.2,11.9,0-3.2,5-11.4,1.9-8,10-8.9-1-2.5-6.4-16-4.4-2.7-5,6.2-2.4,7.9-5.1s-3.4-6.1,1.1-6,2.7,5.2,3.1,5.5Z"/>
  <path class="st50" d="M2159.5,93.9c1.5.7,7.2,0,9.7.2,1.7,3.1-3.6,2-5.1,3.3s2,3.5-2,4.5c-4.9-3.6-12.5.3-12.9,0s3-5.9-4-7.8c5.6.1,9.5-1.3,10-4.4,4.3.1,3.1,3.7,4.2,4.3Z"/>
  <path class="st27" d="M2391.1,685.7c2.6,1.5-2.7,7.6,12,5.6,1.6,3.5-6.9,2.9-7.8,3.4-2.3,1.4,4.3,5-1.2,6.5-.7-3.7-15-5.1-15-6.1,0-1.4,7-1.4,7.7-1.8s-1.4-11,4.3-7.6Z"/>
  <path class="st27" d="M473.9,751.2c2.6,1.5-2.7,7.6,12,5.6,1.6,3.5-6.9,2.9-7.8,3.4-2.3,1.4,4.3,5-1.2,6.5-.7-3.7-15-5.1-15-6.1,0-1.4,7-1.4,7.7-1.8s-1.4-11,4.3-7.6Z"/>
  <path class="st27" d="M88,139.6c2.6,1.5-2.7,7.6,12,5.6,1.6,3.5-6.9,2.9-7.8,3.4-2.3,1.4,4.3,5-1.2,6.5-.7-3.7-15-5.1-15-6.1,0-1.4,7-1.4,7.7-1.8s-1.4-11,4.3-7.6Z"/>
  <path class="st27" d="M1043.6,744.6c.3.2,1.3,5.3,2,5.6,1.1.4,7.6-2.4,10,.6,2,2.5-7.2,2.2-7.9,2.8-1.3,1,2.9,5,2,5.5-5.5,2.7-6.7-3.5-7.9-4-2.6-1.1-8.1,1.5-10.1-1s5.3-1.3,7.1-2.7-.2-9.8,4.8-6.7Z"/>
  <path class="st27" d="M249.9,520.4c.3.2,1.3,5.3,2,5.6,1.1.4,7.6-2.4,10,.6,2,2.5-7.2,2.2-7.9,2.8-1.3,1,2.9,5,2,5.5-5.5,2.7-6.7-3.5-7.9-4-2.6-1.1-8.1,1.5-10.1-1s5.3-1.3,7.1-2.7-.2-9.8,4.8-6.7Z"/>
  <path class="st27" d="M1251.6,836.7c.3.2,1.3,5.3,2,5.6,1.1.4,7.6-2.4,10,.6,2,2.5-7.2,2.2-7.9,2.8-1.3,1,2.9,5,2,5.5-5.5,2.7-6.7-3.5-7.9-4-2.6-1.1-8.1,1.5-10.1-1s5.3-1.3,7.1-2.7-.2-9.8,4.8-6.7Z"/>
  <path class="st27" d="M1883.3,63c.3.2,1.3,5.3,2,5.6,1.1.4,7.6-2.4,10,.6,2,2.5-7.2,2.2-7.9,2.8-1.3,1,2.9,5,2,5.5-5.5,2.7-6.7-3.5-7.9-4-2.6-1.1-8.1,1.5-10.1-1s5.3-1.3,7.1-2.7-.2-9.8,4.8-6.7Z"/>
  <path class="st27" d="M1489.5,663.5c.3.2,1.3,5.3,2,5.6,1.1.4,7.6-2.4,10,.6,2,2.5-7.2,2.2-7.9,2.8-1.3,1,2.9,5,2,5.5-5.5,2.7-6.7-3.5-7.9-4-2.6-1.1-8.1,1.5-10.1-1-1.9-2.5,5.3-1.3,7.1-2.7s-.2-9.8,4.8-6.7Z"/>
  <path class="st34" d="M2511.1,34.2v5.5c.4.3,12.3-2.4,12,.6s-12.5,3.6-8,8.3c-6.4.9-5.3-4-6.1-4.4-1.3-.7-8.1,2.1-9.9-.6s6.8-2,7.8-2.9c2-1.6-5.5-6.9,4.1-6.6Z"/>
  <path class="st34" d="M425.9,192.9v5.5c.4.3,12.3-2.4,12,.6s-12.5,3.6-8,8.3c-6.4.9-5.3-4-6.1-4.4-1.3-.7-8.1,2.1-9.9-.6s6.8-2,7.8-2.9c2-1.6-5.5-6.9,4.1-6.6Z"/>
  <path class="st52" d="M1900.8,286.4c7.3,3.9-6,11.2-13,7.2s4.2-12,13-7.2Z"/>
  <path class="st39" d="M2.6,31.7c-11.2-6,18.3-12.7,15.5-2.6-1.1,4.1-10.5,5.2-15.5,2.6Z"/>
  <path class="st52" d="M2059.8,843.7c6.7-3.6,19.4,0,14.6,5.3-6.4,7-22.7-.9-14.6-5.3Z"/>
  <path class="st35" d="M2063,592.7c3.9,1.4,3.9,8.8-6.5,8.7-16.7-.2-5.9-13,6.5-8.7Z"/>
  <path class="st35" d="M2053,163.1c3.9,1.4,3.9,8.8-6.5,8.7-16.7-.2-5.9-13,6.5-8.7Z"/>
  <path class="st64" d="M570.3,887.5c-10.9-6.1,11.4-12.9,13.6-4.6,1.3,5-7.6,8-13.6,4.6Z"/>
  <path class="st35" d="M1296.8,941.2c13.4-2.5,18.4,5.5,8.7,8.2-11.2,3.1-16.4-6.8-8.7-8.2Z"/>
  <path class="st18" d="M777.2,658.2c15.1-2.5,15.1,11,0,8.5-7.2-1.2-7.3-7.3,0-8.5Z"/>
  <path class="st66" d="M440.2,683.4c-6.7-5.9,9.5-11.2,14.7-5.4s-11.5,8.2-14.7,5.4Z"/>
  <path class="st57" d="M1898.8,131.6c-6.1,3.4-12.1,1.1-11.7-3.6.8-8.5,21.3-1.7,11.7,3.6Z"/>
  <path class="st85" d="M1317.5,23.1c.4,1.7-2.4,3.4-2.2,4.9s6.7,0,4.2,2.9c-10.2-1.6-8.7,2.2-16,3.3,4-5.7-1.6-4.5-2-8.9,8.2,3,8.8-1.8,16-2.2Z"/>
  <path class="st14" d="M2159.2,588.1c-1.8-5,14.2-13.4,14.2-5s-6.9,5.5-14.2,5Z"/>
  <path class="st14" d="M1915.3,563.6c-1.8-5,14.2-13.4,14.2-5,0,4.7-6.9,5.5-14.2,5Z"/>
  <path class="st42" d="M409.4,360.2c-2.8,1.5-9.7,1.4-13.5,1.4-1-4.2,6.8-6.1,11-8.9,4.8,1.6,6.8,5.2,2.5,7.5Z"/>
  <path class="st42" d="M2452.6,271.4c-2.8,1.5-9.7,1.4-13.5,1.4-1-4.2,6.8-6.1,11-8.9,4.8,1.6,6.8,5.2,2.5,7.5Z"/>
  <path class="st4" d="M127.3,654.8c12.3-1.9,5.2,10-6.2,8.7-7-.8,2.8-8.2,6.2-8.7Z"/>
  <path class="st42" d="M329.4,621.1c-2.8,1.5-9.7,1.4-13.5,1.4-1-4.2,6.8-6.1,11-8.9,4.8,1.6,6.8,5.2,2.5,7.5Z"/>
  <path class="st22" d="M1035.7,832.3c1,7.1-2,8.2-14,8.9-1.4-4.4,6-9.1,14-8.9Z"/>
  <path class="st41" d="M499.4,467.4c6.3,3.4-5.6,9.3-10.6,5.3s3.9-8.9,10.6-5.3Z"/>
  <path class="st41" d="M113.6,225.4c6.3,3.4-5.6,9.3-10.6,5.3-4.3-3.4,3.9-8.9,10.6-5.3Z"/>
  <path class="st55" d="M218,783.4c.6-.7,1.3-.7,2,0,2.6-.5,1.7-1.1,2-2.2,3.5,2.9,9.2,5,12.8,7.9s4.4,2.9,1.1,3.8-15.2-8-18-9.4Z"/>
  <path class="st15" d="M1528.9,806.5c-3.9,2.2-12,.3-10.5-3.2,2.8-6.4,18.1-1.2,10.5,3.2Z"/>
  <path class="st23" d="M1857.2,810.2c4.2,3.3-6.3,8.1-11,4.4-6.6-5.3,8.5-6.3,11-4.4Z"/>
  <path class="st51" d="M1897.1,24.1c-7.6,3-14.5-5.4-6.8-6.6s10.9,4.9,6.8,6.6Z"/>
  <path class="st87" d="M1804.6,660.3c7-.6,9,7.1,1.8,7.4-7.9.4-9.2-6.8-1.8-7.4Z"/>
  <path class="st20" d="M2218.3,884.4c7-1.1,12.9,5.1,3.6,6.5-8.3,1.2-8.5-5.7-3.6-6.5Z"/>
  <path class="st20" d="M2028.3,298.4c7-1.1,12.9,5.1,3.6,6.5s-8.5-5.7-3.6-6.5Z"/>
  <path class="st26" d="M2162.6,336.2c8.3-1.2,8.5,5.7,3.6,6.5-7,1.1-12.9-5.1-3.6-6.5Z"/>
  <path class="st26" d="M1914.7,394c8.3-1.2,8.5,5.7,3.6,6.5-7,1.1-12.9-5.1-3.6-6.5Z"/>
  <path class="st36" d="M621.8,408.2v-5.6c16.6-1.2,16.3,6.8,0,5.6Z"/>
  <path class="st89" d="M1849.3,211.8c-3.3,3.7-9.6,9.1-18,8.9l16-10c.5.5.2,1.3,2,1.1Z"/>
  <path class="st49" d="M390.1,846.6c-5.9-4.5,10.2-7.9,11.7-2.5s-9.2,4.5-11.7,2.5Z"/>
  <path class="st49" d="M622,584.6c-5.9-4.5,10.2-7.9,11.7-2.5s-9.2,4.5-11.7,2.5Z"/>
  <path class="st43" d="M316,727.9c-5.6-4.5,9.9-8,11.9-2.7s-10,4.2-11.9,2.7Z"/>
  <path class="st19" d="M1902.5,702.5c7.4-1.3,12.1,2.9,6.8,4.9-7.8,3-14.6-3.6-6.8-4.9Z"/>
  <path class="st70" d="M1765.4,167.4c2.3-1.7,12.8-.6,11.8,2.6-1.8,5.9-16.1.5-11.8-2.6Z"/>
  <path class="st62" d="M633,215.2c9.5-1.6,11.5,4.7,5.8,5.5s-12.7-4.3-5.8-5.5Z"/>
  <path class="st44" d="M641.8,90.8c1,4.6-1.6,6.1-10,5.5v-5.6s10,0,10,0Z"/>
  <path class="st75" d="M685.8,686.9c4.6,1.6,16.4,1.8,16,5.5l-22-3.3c1.9-.8,4.1-1.4,6-2.2Z"/>
  <path class="st65" d="M302,179.6h-10c-1.7-7.7,11.8-7.6,10,0Z"/>
  <path class="st53" d="M447.8,548.1c1.9,1.3-.4,6.6-6.9,5.5s2-9,6.9-5.5Z"/>
  <path class="st81" d="M1153.7,16.4c2.4-1,11.9.2,9.9,3.8s-16.3-1.1-9.9-3.8Z"/>
  <path class="st45" d="M971.6,779c6.3,2.8-7.4,8.5-9.9,3.8s7.5-4.9,9.9-3.8Z"/>
  <path class="st63" d="M696.8,775.9c7-.3,9.2,5.6,1.8,6.3s-8.8-5.9-1.8-6.3Z"/>
  <path class="st65" d="M627.8,529.2h-10c-1.7-7.7,11.8-7.6,10,0Z"/>
  <path class="st9" d="M325.9,303.9v-5.6c13.9-.9,13.6,6.5,0,5.6Z"/>
  <path class="st65" d="M74,413.8h-10c-1.7-7.7,11.8-7.6,10,0Z"/>
  <path class="st8" d="M2070.6,680.4c11.2-1.7,6.9,10.6-5.3,2.6,1.6-.8,3.1-2.3,5.3-2.6Z"/>
  <path class="st92" d="M612.9,356.1c6-.7,9.5,5.7,1.9,6.6s-6.8-6.1-1.9-6.6Z"/>
  <path class="st8" d="M1916.7,340.7c11.2-1.7,6.9,10.6-5.3,2.6,1.6-.8,3.1-2.3,5.3-2.6Z"/>
  <path class="st8" d="M791.8,281.7c-.3-1.6-.3-5,3-5.5,9.1-1.5,10.2,7.4-3,5.5Z"/>
  <path class="st13" d="M949.7,12v5.6c-12.2,1.4-14-6.8,0-5.6Z"/>
  <path class="st76" d="M1800.4,350.5c9.2-1.4,9.2,7,0,5.5s-4-4.9,0-5.5Z"/>
  <path class="st16" d="M183,595.8c9.2-1.4,9.2,7,0,5.5s-4-4.9,0-5.5Z"/>
  <path class="st47" d="M2241.1,210.6c-5.2,3.6-15.4-4.1-4.9-5.5s6.4,4.5,4.9,5.5Z"/>
  <path class="st3" d="M1205.5,779c6.5,2.9-7.3,8.5-9.9,2.7s8-3.6,9.9-2.7Z"/>
  <path class="st1" d="M186,98.5c4.3,1.4,13.3,1.3,16,4.4-6,0-14.6,0-18-3.3.8-.2,1.5-.7,2-1.1Z"/>
  <path class="st1" d="M2357.2,413.8c4.3,1.4,13.3,1.3,16,4.4-6,0-14.6,0-18-3.3.8-.2,1.5-.7,2-1.1Z"/>
  <path class="st90" d="M2087.3,24.2c1.8-.1,1.8.6,0,2.2-.1.4.2.8,0,1.1-.8,1.3-7.7,5.6-10,4.4,8.7-4.2,7.5-7.7,10-13.3,0,1.8,0,3.7,0,5.6Z"/>
  <path class="st73" d="M2367.1,605.8c-1.1.7-4.7,7.7-8,5.5s3.7-5.8,6-6.7c.5.4,1.3.8,2,1.1Z"/>
  <path class="st71" d="M1873.3,199.6c-2.7.4-5.9,2.8-10,2.2.4-1.8,4.5-2.4,6-3.3l4,1.1Z"/>
  <path class="st88" d="M1871.3,659.1c1.5.4,1.5,1.1,0,2.2-4.8,2.8-9.5,5.9-14,8.9,2.9,1.6,13.2-6.4,16.1-7.2s5.9-.3,7.9-.6c-2.4,1.4-6.2,1.1-9.1,2.2s-19.4,11.8-18.9,6.1,13.4-6.5,14.9-8.3c2-2.5.7-5.2,1-7.8,3,.8,2,3,2,4.4Z"/>
  <path class="st10" d="M2401.1,592.5c-2.4.6-4,2.9-8,2.2,0-1.7,5.3-2.7,6-3.3l2,1.1Z"/>
  <path class="st7" d="M2527.1,523.7c-.6,0-3.1,1.8-6,1.1-.3-1.3,3.6-1.7,4-2.2l2,1.1Z"/>
  <path class="st55" d="M222,777.9l-2-4.4c.8,1.7,1.7,1.8,2,4.4Z"/>
  <path class="st12" d="M2393.1,598.1v1.1c-1.1-.2-4,.6-4-.6,0-1.1,2.6-.3,4-.6Z"/>
  <path class="st78" d="M649.8,663.5c2.6,0,3.1,2.1,1,2.2l-1-1.1v-1.1Z"/>
  <path class="st46" d="M1871.3,661.3c0-.7,0-1.5,0-2.2,7.4-4.6,15.1-9.6,22-14.4-.8.7-.8,2.3-2.3,3.7-6.4,5.8-12.4,8.6-19.7,13Z"/>
  <path class="st48" d="M1901.3,638c.9-.7.3-3.3,4-3.3,1.5,2.3-3,2.5-4,3.3Z"/>
  <path class="st5" d="M1897.3,641.3c1.8-1.7,2.4-2,4-3.3-1.6,1.3-1.8,1.8-4,3.3Z"/>
  <path class="st86" d="M1893.3,644.7c1.5-1.4,3.3-2.7,4-3.3-1,.7-1.9,1.9-4,3.3Z"/>
  <path class="st11" d="M220,783.4c-.5,0-1.3,0-2,0-10.4-5.3-21.5-10.2-32-15.5,11.7,4.2,27.8,8.3,34,15.5Z"/>
  <path class="st25" d="M180,764.6c-.6.7-1.3.6-2,0-1.6-.7-6.3-.7-8-2.8l1-.6c3.5.1,6.4,2.1,9,3.3Z"/>
  <path class="st74" d="M186,767.9c-.7-.3-3-.3-5.1-1s-2.1-2-2.9-2.3h2c2.7,1.3,4,2.3,6,3.3Z"/>
  <path class="st67" d="M2087.3,26.4c.2-.7,0-1.5,0-2.2l5-2.2,1,.6-6,3.9Z"/>
</svg>