<?xml version="1.0" encoding="UTF-8"?>
<svg id="Layer_1" xmlns="http://www.w3.org/2000/svg" version="1.1" viewBox="0 0 2575.1 1710.7">
  <!-- Generator: Adobe Illustrator 29.1.0, SVG Export Plug-In . SVG Version: 2.1.0 Build 142)  -->
  <defs>
    <style>
      .st0 {
        fill: #fcbe29;
      }

      .st1 {
        fill: #fcc444;
      }

      .st2 {
        fill: #b0ac34;
      }

      .st3 {
        fill: #ffcd49;
      }

      .st4 {
        fill: #fcc135;
      }

      .st5 {
        fill: #919c38;
      }

      .st6 {
        fill: #fcbe26;
      }

      .st7 {
        fill: #ffe6b5;
      }

      .st8 {
        fill: #ffd649;
      }

      .st9 {
        fill: #ffd64d;
      }

      .st10 {
        fill: #ffe8b8;
      }

      .st11 {
        fill: #909c39;
      }

      .st12 {
        fill: #ffefcf;
      }

      .st13 {
        fill: #fdd554;
      }

      .st14 {
        fill: #fcc12f;
      }

      .st15 {
        fill: #ffca3f;
      }

      .st16 {
        fill: #ffd546;
      }

      .st17 {
        fill: #fbbf1b;
      }

      .st18 {
        fill: #fdc62a;
      }

      .st19 {
        fill: #fdc836;
      }

      .st20 {
        fill: #ffd754;
      }

      .st21 {
        fill: #ffdd47;
      }

      .st22 {
        fill: #fcc12d;
      }

      .st23 {
        fill: #ffcc46;
      }

      .st24 {
        fill: #fabe16;
      }

      .st25 {
        fill: #99a037;
      }

      .st26 {
        fill: #ffd64c;
      }

      .st27 {
        fill: #f7b52f;
      }

      .st28 {
        fill: #fcbd15;
      }

      .st29 {
        fill: #b1ad35;
      }

      .st30 {
        fill: #ffd234;
      }

      .st31 {
        fill: #ffd236;
      }

      .st32 {
        fill: #fcbd1e;
      }

      .st33 {
        fill: #b3ae38;
      }

      .st34 {
        fill: #f7b52e;
      }

      .st35 {
        fill: #ffd840;
      }

      .st36 {
        fill: #ffd84a;
      }

      .st37 {
        fill: #ffde49;
      }

      .st38 {
        fill: #ffde48;
      }

      .st39 {
        fill: #ffd843;
      }

      .st40 {
        fill: #fcbe21;
      }

      .st41 {
        fill: #ffca38;
      }

      .st42 {
        fill: #fcc134;
      }

      .st43 {
        fill: #fdc93d;
      }

      .st44 {
        fill: #ffd647;
      }

      .st45 {
        fill: #fdc630;
      }

      .st46 {
        fill: #929d3a;
      }

      .st47 {
        fill: #ffd64a;
      }

      .st48 {
        fill: #979d37;
      }

      .st49 {
        fill: #fdcc51;
      }

      .st50 {
        fill: #fdc62d;
      }

      .st51 {
        fill: #ffd652;
      }

      .st52 {
        fill: #ffd841;
      }

      .st53 {
        fill: #ffd858;
      }

      .st54 {
        fill: #fabb29;
      }

      .st55 {
        fill: #acab43;
      }

      .st56 {
        fill: #ffd43b;
      }

      .st57 {
        fill: #ffda48;
      }

      .st58 {
        fill: #f7b631;
      }

      .st59 {
        fill: #fcbf2b;
      }

      .st60 {
        fill: #ffd43a;
      }

      .st61 {
        fill: #fbbc15;
      }

      .st62 {
        fill: #fdd949;
      }

      .st63 {
        fill: #ffcc4c;
      }

      .st64 {
        fill: #fdc731;
      }

      .st65 {
        fill: #ffcb3c;
      }

      .st66 {
        fill: #ffc728;
      }

      .st67 {
        fill: #99a038;
      }

      .st68 {
        fill: #fbbe16;
      }

      .st69 {
        fill: #a3a938;
      }

      .st70 {
        fill: #ffda61;
      }

      .st71 {
        fill: #e0dec0;
      }

      .st72 {
        fill: #b0ad35;
      }

      .st73 {
        fill: #fdc956;
      }

      .st74 {
        fill: #929d39;
      }

      .st75 {
        fill: #fcc549;
      }

      .st76 {
        fill: #ffd544;
      }

      .st77 {
        fill: #fabc2e;
      }

      .st78 {
        fill: #ffe5ae;
      }

      .st79 {
        fill: #b2ad35;
      }

      .st80 {
        fill: #fdc737;
      }

      .st81 {
        fill: #ffd85c;
      }

      .st82 {
        fill: #fcbd19;
      }

      .st83 {
        fill: #fdd93d;
      }

      .st84 {
        fill: #fdda42;
      }

      .st85 {
        fill: #fcc23b;
      }

      .st86 {
        fill: #919c39;
      }

      .st87 {
        fill: #ffc937;
      }

      .st88 {
        fill: #aead47;
      }

      .st89 {
        fill: #a7ac53;
      }

      .st90 {
        fill: #afaf52;
      }

      .st91 {
        fill: #fdd942;
      }

      .st92 {
        fill: #ffd756;
      }
    </style>
  </defs>
  <path class="st30" d="M2575.1,419.3c-9.9,1.2-4.1,9.9-7,16-7.8-5.3-9.1-7.1-19-4-.4-6.3,4.8-11.2-4-12,.9-4.8,7.2-3,10-5s8.5-17.3,10-7.7c1.2,7.7.2,9.5,10,8.7v4Z"/>
  <path class="st21" d="M2285.2,1404.7c5.1,44.3-28.5,84.3-74,82-4.1-43.4,31.4-81,74-82Z"/>
  <path class="st21" d="M152,979c-44.9,2.3-75-42.2-72-84,44.9,1.9,77.5,38.8,72,84Z"/>
  <path class="st2" d="M1881.3,1192.8c-7.2,1.3-13.3,5.3-18.2,12-14.4,9.2.2-7.2,8.2-14,7.8-9.5,15.1-19.5,22-30l4-6,4-6q3.3-4.6,0,0l-4,6-4,6c-5.5,9.9-12.5,19.9-22,26-.6-2.3-1.3-5-2-8,1.8-27.3,7.3-47.1,30-65s21.7-15.7,24,6.1c3.7,36.2-5.8,62.9-42,72.9Z"/>
  <path class="st2" d="M220,1392.7l2,8c.1,1.8.2,4.3,0,6,2.5,4.3,3,6.3-2,4-10.4-10.4-21.8-19.7-34-28-3.2-1.2-5.2-3.2-6-6-2.9-1.4-3.5-1.4-2,0l8,6c12.7,7.8,23.3,17.1,32,28-29.7,3-56-9.6-73.9-33-12.7-16.6-12.2-24.8,11-25,28.6-.2,57.1,10.9,64.9,40Z"/>
  <path class="st69" d="M1869.3,357.3c-.2,1.6,1.1,2.2,4,2,7.4-2.1,24-6.3,24.1,4.9.2,19.1-35.4,16.8-48.1,17-3.6,2.8-4.7,1.7-2-2-3.6-7.2-4.4-3.8-10.1-8.9-10.8-9.7-21.4-39.3.7-32.6,9.6,2.9,14,21.2,16.4,29.6,5.7-8.3,2.2-20.3,3.5-30.5,1.3-9.8,11.8-37.6,21.4-40.6,16.2-5.2,11.4,18.1,9.1,27.1s-10.7,24.7-19,34Z"/>
  <path class="st24" d="M1127.6,1514.7c-9.9-15.8,4.5-51.4,20.9-27.9,6.9,9.9,11.6,54.5,1.1,60.9-11.4,6.9-51.6-13.4-57-25-6.2-13.5,7.5-20.5,19-17,3.3,1,14,11,15.9,9.1Z"/>
  <path class="st68" d="M2443.1,269.4c-5.2-9.4-6.7-35.9,7.3-37.5,23.1-2.5,22,63.7,14.8,68.5-14.1,9.3-79.7-25-54.9-40.8,14.2-9.1,31.6,11.2,32.8,9.8Z"/>
  <path class="st68" d="M667.8,515.2c-1-5.8-3.9-8.4-4.2-15-.8-24.6,20.8-30,28-3.9s5.7,47.3-3.9,51.9-60-18.1-57.6-33.6,28.8-6.7,37.6.5Z"/>
  <path class="st61" d="M2355.2,747.1c-8.3,3.8-33.8,14.1-40.2,4.6-7.6-11.3,15-12,21.2-12.7s5.8,1.8,5-3c-1.2-7.1-29.2-12.5-37.1-16.9-29.4-16.4-3.6-33,17-14.1,1.8-2.2-20.6-29.5-9.5-41.5,14.5-15.7,19.1,45.3,21.5,51.5l8.6-23.4c14.2-7.9,14.7,6.8,12.9,17.9-2.5,15.7-18,23.7,2.5,35.5,3,2.8,1.7,4-2,2Z"/>
  <path class="st61" d="M184,179.4c-8.3,3.8-33.8,14.1-40.2,4.6s15-12,21.2-12.7,5.8,1.8,5-3c-1.2-7.1-29.2-12.5-37.1-16.9-29.4-16.4-3.6-33,17-14.1,1.8-2.2-20.6-29.5-9.5-41.5,14.5-15.7,19.1,45.3,21.5,51.5l8.6-23.4c14.2-7.9,14.7,6.8,12.9,17.9-2.5,15.7-18,23.7,2.5,35.5,3,2.8,1.7,4-2,2Z"/>
  <path class="st28" d="M649.8,1194.8c-1.9-7.4-8-11.5-9.5-19.5s-2.5-27,9.6-19.6c7.5,4.6,9.4,41.3,12,51,6.8,1.6,3.1-7.6,4.4-12.5,5-19.2,21.3-15.5,19.4,3.3-1.7,16.8-19.3,27.3,0,39.2,1.6,3.1-.4,4.4-6,4-.7.5-.8,2.4-3.4,3.5-5.3,2.3-28.8,4.7-31.7.6-8.8-12.3,20.8-13.9,27.1-15.1-6.7-12.5-53.1-15-51.5-33.7,1.2-14.5,22.7-3.4,29.5.7,1.3.1,1.3-.5,0-2Z"/>
  <path class="st82" d="M2399.1,1064.9c-2.7,3.3-2,4,2,2,22.6-11.2,29,4.3,14.6,7.6s-13.5-.2-22.5,2.4c-1.5.7-1.5,1.4,0,2,16.1,5.9,16.7,16-.5,13.6-10.8-1.5-15.9-13.3-25.5-1.6-2,.6-2.6,0-2-2-13.9-22.4,8.4-42.2,6-8,4.1,4.6,13.6-20.6,14.7-22.3,11.3-17.3,20.8-6.8,13.3,6.3Z"/>
  <path class="st37" d="M920.8,1208.9c3.1-.6,15.5,3.1,19,4.8,8.9,4.4,16,13.8,18.9,23.1,5.6,18.2.3,18.9-16.1,12.1-10.5-4.4-18-13.7-21.5-24.4s-4.6-14.7-.3-15.5Z"/>
  <path class="st38" d="M1682.9,1367.1c11.9-1.4,1.8,23.5-2.6,29.5s-32.9,23.9-32.9,9.2c0-17.3,18.6-36.7,35.6-38.7Z"/>
  <path class="st79" d="M1828.9,1311.1c25.8-4.3,22.5,50.1-5,38.1-19.1-8.3-14.8-34.8,5-38.1Z"/>
  <path class="st29" d="M161.5,653.6c22.2-2.3,22.4,39.8,1.5,39.7-24.1-.1-26.8-37.1-1.5-39.7Z"/>
  <path class="st29" d="M2270.6,85.9c22.2-2.3,22.4,39.8,1.5,39.7s-26.8-37.1-1.5-39.7Z"/>
  <path class="st72" d="M2087.3,49.5c-1.7-.5-1.7-1.2,0-2,1.4-2.6,1.4-3.9,0-4-.8-3.3-.8-6.6,0-10,2-8.3.7-10.3,6.3-18.7,14.2-21,24.6-20.9,21.8,7.8-1.5,14.9-12.7,26.8-28.1,26.9Z"/>
  <path class="st17" d="M2525.1,941c-.8,1.4,0,2.1,2,2,5.2,0,12,2,11,8.3-1.4,9-31,6.2-32.8,3.6-3.4-4.9,10.7-35,20.9-25.9,1.8,2.7.2,9.3-1.1,12.1Z"/>
  <path class="st40" d="M1899.7,1376.3c2.7,1.6,8.2,0,11.6.4.9,4-3.8,5.3-4,9s4.7,6.7,4,11c-4.4,1.5-9.6-4.3-12.7-3.7-2.9.6-5.7,7.8-11.3,5.7-.8-.7,3.6-10.2,2-12-1-1.1-7.2,2.4-6-3,11.7-3.5,5.2-7.1,11-15,2.8,1,4.3,6.9,5.4,7.5Z"/>
  <path class="st31" d="M802,812.9c1,1,8-.7,9.7,3.2-9.6,5.6-6.7,5-6.8,12.8,0,10.1-8.3-1-10.6-1.5-3.3-.8-7,2.4-10.6,1.7,3.6-7.6,0-9.3-2-16,2.7-.4,7.8,1,9.7-.3s.2-15,8.4-8.9,1.1,7.9,2.1,8.9Z"/>
  <path class="st30" d="M2013.3,1678.6c1.1,1.2-2.7,12.9,10,10,1.4,5.2-5.3,4.6-6,7.4-.9,3.5.6,8.7,0,12.6-8.6-3.7-9.4-7.9-20-4,5.1-9.9-4.3-12.2-4-13,1.2-3.3,7.6-2.3,10-4s5-14,10-9Z"/>
  <path class="st30" d="M2219.2,1296.8c1.1,1.2-2.7,12.9,10,10,1.4,5.2-5.3,4.6-6,7.4-.9,3.5.6,8.7,0,12.6-8.6-3.7-9.4-7.9-20-4,5.1-9.9-4.3-12.2-4-13,1.2-3.3,7.6-2.3,10-4s5-14,10-9Z"/>
  <path class="st30" d="M1777.4,465.3c1.1,1.2-2.7,12.9,10,10,1.4,5.2-5.3,4.6-6,7.4s.6,8.7,0,12.6c-8.6-3.7-9.4-7.9-20-4,5.1-9.9-4.3-12.2-4-13,1.2-3.3,7.6-2.3,10-4s5-14,10-9Z"/>
  <path class="st33" d="M341.4,47.8c15.2-2.3,16.2,25.6,1.5,25.5s-16.3-23.3-1.5-25.5Z"/>
  <path class="st30" d="M952,141.2c2,1.3,12.4-1.5,6.4,4.4s-5.9,4.2-4.7,13.8c-5.2,2.3-8.9-5.4-11-5.6s-5.5,4.8-9,3.6c1.3-8.1,1.9-10-4-16,11.9,5.5,13.5-12.1,15-12,6.4.1,5.4,10.6,7.2,11.8Z"/>
  <path class="st30" d="M1381.8,1344.5c2,1.3,12.4-1.5,6.4,4.4-5,4.9-5.9,4.2-4.7,13.8-5.2,2.3-8.9-5.4-11-5.6s-5.5,4.8-9,3.6c1.3-8.1,1.9-10-4-16,11.9,5.5,13.5-12.1,15-12,6.4.1,5.4,10.6,7.2,11.8Z"/>
  <path class="st30" d="M2103.5,816.8c2,1.3,12.4-1.5,6.4,4.4-5,4.9-5.9,4.2-4.7,13.8-5.2,2.3-8.9-5.4-11-5.6s-5.5,4.8-9,3.6c1.3-8.1,1.9-10-4-16,11.9,5.5,13.5-12.1,15-12,6.4.1,5.4,10.6,7.2,11.8Z"/>
  <path class="st60" d="M829.7,1534.7c1.5,8.8,3.5,10.6,12,8,.8,4-3.6,5.1-3.8,8.8s2.8,7.4,1.8,11.1c-10.6-7.6-7.8-4.5-18,0,3-7.7-5.7-9.8-6.1-11-2.5-7.2,4.9-3.9,7.1-6.9s-.1-11.1,6.9-10.1Z"/>
  <path class="st56" d="M843.8,33.5c1.1.8,7-3,7.9-2,1.5,3.8-3.2,7-3.3,9s3.6,5.1,3.3,7.9c-.7,6.5-9.1-2.6-11-2.5s-4.6,6.9-9,5.5c3.2-10.1.5-6.7-6-13,8.4-3.6,9.5-5.4,10-15,6.4-1.9,7.2,9.3,8.1,10Z"/>
  <path class="st0" d="M855.7,1322.8c1.2,3.7-3.3,5-3.7,7.3s4.9,4.7,3.7,8.6c-7.4-1.5-10.2-2.9-15,4-4.4-7.4-1.4-9.7-11-13-1.2-5.8,6.8-1.7,8-3s-1.5-10.1,3-12c4,10.1,4.4,9.9,15,8Z"/>
  <path class="st0" d="M1659.4,1614.6c1.2,3.7-3.3,5-3.7,7.3-.6,3.2,4.9,4.7,3.7,8.6-7.4-1.5-10.2-2.9-15,4-4.4-7.4-1.4-9.7-11-13-1.2-5.8,6.8-1.7,8-3s-1.5-10.1,3-12c4,10.1,4.4,9.9,15,8Z"/>
  <path class="st0" d="M170,1614.6c1.2,3.7-3.3,5-3.7,7.3s4.9,4.7,3.7,8.6c-7.4-1.5-10.2-2.9-15,4-4.4-7.4-1.4-9.7-11-13-1.2-5.8,6.8-1.7,8-3s-1.5-10.1,3-12c4,10.1,4.4,9.9,15,8Z"/>
  <path class="st59" d="M600,864.9c1.7,1.5,12-3.7,11.8,1.2s-4,3-4,6,5.1,5,4.1,9c-3.3,1.4-7.9-4.1-9-4-1.9.2-2.6,8.9-9,6,2.6-11.5-6.6-8.7-8-10-4.3-4.1,7.1-5.2,7.7-6.3,1.3-2-.2-7,.3-9.7,6.2-1.6,5.2,6.9,6.2,7.8Z"/>
  <path class="st6" d="M431.9,141.5c2.3,2.7-2.4,11.8,12,6,1.5,3.7-3.3,7.2-3.3,9s5.3,6.8,3.3,9-5.8-3.5-7-3.5c-2.3,0-4.7,7-9,5.5,2.6-11.5-6.6-8.7-8-10-4.3-4.1,7.1-5.2,7.7-6.3s-.7-15.4,4.3-9.7Z"/>
  <path class="st32" d="M2157.3,437.3c1.1.9,7.3-3,9.9-2,1.2,3.7-3.3,5-3.7,7.3s4.9,4.7,3.7,8.6c-8.3-3.3-9.9-1.2-16,4,2.8-11.1-7-9-8-10.1s-.3-5.7,0-5.9c2-2,11.1,5.8,8-12,4.4.1,5.4,9.5,6,10Z"/>
  <path class="st84" d="M2306.7,907.5c8.6,8.7-4.2,23.9-13,15-9.3-9.5,4.6-23.5,13-15Z"/>
  <path class="st80" d="M320.3,784.7c2.5,1.4,6.7.1,9.6.4,1.8,5.4-3.4,3.5-4.9,6s-1.5,10-4.1,10-6.7-6.2-13-2c3.5-6.8-.7-8-2-14,6.8.4,9.2,1.5,8-6,5-1.6,4.7,4.6,6.4,5.6Z"/>
  <path class="st91" d="M713.3,436.8c-9.1,9-22.7-6.3-14.5-13.5s22.5,5.6,14.5,13.5Z"/>
  <path class="st83" d="M2464.5,1497c15.9-4.7,17.5,19.9,1.7,17.7-9.3-1.3-9.7-15.3-1.7-17.7Z"/>
  <path class="st77" d="M1927.3,921c-10.6-3.9-11.4.3-20,4-.9-3.5,2.6-7.9,2.2-10.7s-10.1-5-6.2-9.3c1.7-1.9,8,4.3,10.9,4.1s1.5-6.9,6.1-6.1.9,6.7,1.4,8.5c1,3.7,6.6,4.7,5.6,9.4Z"/>
  <path class="st54" d="M2513.2,675.1c.9,1,7.2-.6,7.9,0,5.2,5-6.4,6.8-7.1,7.8-2.5,3.5,2,11-3.9,10.1-3.7-2.1-2.4-7.8-4-10-2.4-3.4-11.5-.1-9-4.9s13.6,1.9,10-13c7.5-1.5,5.2,9,6.1,9.9Z"/>
  <path class="st45" d="M681.8,261.4c1.7,2.2-4.5,8.3,10,6,1.7,5.3-5.9,4.8-6.2,7.4s4.5,9.7-2.5,8.3-2.9-2.9-4.6-3.2-6,2.1-6.7,1.5,5.5-9-4-11l14-9Z"/>
  <path class="st58" d="M1759.5,861c.9.9,9.3-.4,11.9,0-3.2,8.9-11.4,3.4-8,18-8.9-1.8-2.5-11.5-16-8-2.7-8.9,6.2-4.4,7.9-9.2s-3.4-11,1.1-10.7,2.7,9.4,3.1,9.9Z"/>
  <path class="st58" d="M1599.5,75.4c.9.9,9.3-.4,11.9,0-3.2,8.9-11.4,3.4-8,18-8.9-1.8-2.5-11.5-16-8-2.7-8.9,6.2-4.4,7.9-9.2s-3.4-11,1.1-10.7,2.7,9.4,3.1,9.9Z"/>
  <path class="st50" d="M2159.5,169.1c1.5,1.3,7.2-.1,9.7.3,1.7,5.6-3.6,3.7-5.1,6s2,6.2-2,8c-4.9-6.4-12.5.5-12.9,0s3-10.6-4-14c5.6.2,9.5-2.3,10-8,4.3.2,3.1,6.7,4.2,7.7Z"/>
  <path class="st27" d="M2391.1,1234.8c2.6,2.8-2.7,13.7,12,10,1.6,6.2-6.9,5.2-7.8,6.2-2.3,2.6,4.3,9-1.2,11.8-.7-6.6-15-9.2-15-11,0-2.6,7-2.5,7.7-3.3s-1.4-19.8,4.3-13.7Z"/>
  <path class="st27" d="M473.9,1352.8c2.6,2.8-2.7,13.7,12,10,1.6,6.2-6.9,5.2-7.8,6.2-2.3,2.6,4.3,9-1.2,11.8-.7-6.6-15-9.2-15-11,0-2.6,7-2.5,7.7-3.3s-1.4-19.8,4.3-13.7Z"/>
  <path class="st27" d="M88,251.4c2.6,2.8-2.7,13.7,12,10,1.6,6.2-6.9,5.2-7.8,6.2-2.3,2.6,4.3,9-1.2,11.8-.7-6.6-15-9.2-15-11,0-2.6,7-2.5,7.7-3.3s-1.4-19.8,4.3-13.7Z"/>
  <path class="st27" d="M1043.6,1340.8c.3.4,1.3,9.5,2,10,1.1.8,7.6-4.4,10,1,2,4.5-7.2,3.9-7.9,5-1.3,1.8,2.9,9.1,2,9.9-5.5,4.8-6.7-6.2-7.9-7.2-2.6-2-8.1,2.7-10.1-1.8s5.3-2.3,7.1-4.8-.2-17.6,4.8-12.1Z"/>
  <path class="st27" d="M249.9,937c.3.4,1.3,9.5,2,10,1.1.8,7.6-4.4,10,1,2,4.5-7.2,3.9-7.9,5-1.3,1.8,2.9,9.1,2,9.9-5.5,4.8-6.7-6.2-7.9-7.2-2.6-2-8.1,2.7-10.1-1.8s5.3-2.3,7.1-4.8-.2-17.6,4.8-12.1Z"/>
  <path class="st27" d="M1251.6,1506.7c.3.4,1.3,9.5,2,10,1.1.8,7.6-4.4,10,1,2,4.5-7.2,3.9-7.9,5-1.3,1.8,2.9,9.1,2,9.9-5.5,4.8-6.7-6.2-7.9-7.2-2.6-2-8.1,2.7-10.1-1.8s5.3-2.3,7.1-4.8-.2-17.6,4.8-12.1Z"/>
  <path class="st27" d="M1883.3,113.5c.3.4,1.3,9.5,2,10,1.1.8,7.6-4.4,10,1,2,4.5-7.2,3.9-7.9,5-1.3,1.8,2.9,9.1,2,9.9-5.5,4.8-6.7-6.2-7.9-7.2-2.6-2-8.1,2.7-10.1-1.8s5.3-2.3,7.1-4.8-.2-17.6,4.8-12.1Z"/>
  <path class="st27" d="M1489.5,1194.8c.3.4,1.3,9.5,2,10,1.1.8,7.6-4.4,10,1,2,4.5-7.2,3.9-7.9,5-1.3,1.8,2.9,9.1,2,9.9-5.5,4.8-6.7-6.2-7.9-7.2-2.6-2-8.1,2.7-10.1-1.8-1.9-4.5,5.3-2.3,7.1-4.8s-.2-17.6,4.8-12.1Z"/>
  <path class="st34" d="M2511.1,61.5v10c.4.5,12.3-4.4,12,1s-12.5,6.5-8,15c-6.4,1.7-5.3-7.2-6.1-8-1.3-1.2-8.1,3.8-9.9-1.1s6.8-3.6,7.8-5.1c2-2.9-5.5-12.4,4.1-11.8Z"/>
  <path class="st34" d="M425.9,347.4v10c.4.5,12.3-4.4,12,1s-12.5,6.5-8,15c-6.4,1.7-5.3-7.2-6.1-8-1.3-1.2-8.1,3.8-9.9-1.1s6.8-3.6,7.8-5.1c2-2.9-5.5-12.4,4.1-11.8Z"/>
  <path class="st52" d="M1900.8,515.7c7.3,7-6,20.2-13,13-8.5-8.8,4.2-21.5,13-13Z"/>
  <path class="st39" d="M2.6,57c-11.2-10.8,18.3-22.8,15.5-4.6-1.1,7.5-10.5,9.4-15.5,4.6Z"/>
  <path class="st52" d="M2059.8,1519.2c6.7-6.5,19.4-.1,14.6,9.5-6.4,12.7-22.7-1.7-14.6-9.5Z"/>
  <path class="st35" d="M2063,1067.2c3.9,2.5,3.9,15.9-6.5,15.7-16.7-.4-5.9-23.5,6.5-15.7Z"/>
  <path class="st35" d="M2053,293.7c3.9,2.5,3.9,15.9-6.5,15.7-16.7-.4-5.9-23.5,6.5-15.7Z"/>
  <path class="st64" d="M570.3,1598.1c-10.9-11,11.4-23.3,13.6-8.4,1.3,9-7.6,14.4-13.6,8.4Z"/>
  <path class="st35" d="M1296.8,1694.8c13.4-4.5,18.4,9.9,8.7,14.8-11.2,5.6-16.4-12.2-8.7-14.8Z"/>
  <path class="st18" d="M777.2,1185.2c15.1-4.5,15.1,19.8,0,15.3-7.2-2.2-7.3-13.1,0-15.3Z"/>
  <path class="st66" d="M440.2,1230.5c-6.7-10.6,9.5-20.2,14.7-9.7s-11.5,14.8-14.7,9.7Z"/>
  <path class="st57" d="M1898.8,236.9c-6.1,6.1-12.1,1.9-11.7-6.5.8-15.3,21.3-3.1,11.7,6.5Z"/>
  <path class="st85" d="M1317.5,41.5c.4,3-2.4,6-2.2,8.8s6.7.2,4.2,5.2c-10.2-3-8.7,3.9-16,6,4-10.2-1.6-8.2-2-16,8.2,5.4,8.8-3.2,16-4Z"/>
  <path class="st14" d="M2159.2,1058.9c-1.8-9,14.2-24.2,14.2-9s-6.9,9.9-14.2,9Z"/>
  <path class="st14" d="M1915.3,1014.9c-1.8-9,14.2-24.2,14.2-9,0,8.5-6.9,9.9-14.2,9Z"/>
  <path class="st42" d="M409.4,648.7c-2.8,2.8-9.7,2.5-13.5,2.5-1-7.5,6.8-10.9,11-15.9,4.8,2.9,6.8,9.3,2.5,13.5Z"/>
  <path class="st42" d="M2452.6,488.8c-2.8,2.8-9.7,2.5-13.5,2.5-1-7.5,6.8-10.9,11-15.9,4.8,2.9,6.8,9.3,2.5,13.5Z"/>
  <path class="st4" d="M127.3,1179.1c12.3-3.4,5.2,17.9-6.2,15.7-7-1.4,2.8-14.8,6.2-15.7Z"/>
  <path class="st42" d="M329.4,1118.4c-2.8,2.8-9.7,2.5-13.5,2.5-1-7.5,6.8-10.9,11-15.9,4.8,2.9,6.8,9.3,2.5,13.5Z"/>
  <path class="st22" d="M1035.7,1498.7c1,12.8-2,14.8-14,16-1.4-7.9,6-16.4,14-16Z"/>
  <path class="st41" d="M499.4,841.6c6.3,6.1-5.6,16.7-10.6,9.6s3.9-16.1,10.6-9.6Z"/>
  <path class="st41" d="M113.6,405.8c6.3,6.1-5.6,16.7-10.6,9.6-4.3-6.1,3.9-16.1,10.6-9.6Z"/>
  <path class="st55" d="M218,1410.7c.6-1.3,1.3-1.3,2,0,2.6-1,1.7-1.9,2-4,3.5,5.3,9.2,9.1,12.8,14.1s4.4,5.2,1.1,6.9-15.2-14.4-18-17Z"/>
  <path class="st15" d="M1528.9,1452.2c-3.9,4-12,.6-10.5-5.7,2.8-11.5,18.1-2.1,10.5,5.7Z"/>
  <path class="st23" d="M1857.2,1458.8c4.2,6-6.3,14.7-11,8-6.6-9.5,8.5-11.4,11-8Z"/>
  <path class="st51" d="M1897.1,43.3c-7.6,5.4-14.5-9.6-6.8-11.8s10.9,8.8,6.8,11.8Z"/>
  <path class="st87" d="M1804.6,1189c7-1.1,9,12.8,1.8,13.4s-9.2-12.2-1.8-13.4Z"/>
  <path class="st20" d="M2218.3,1592.6c7-2,12.9,9.2,3.6,11.7s-8.5-10.3-3.6-11.7Z"/>
  <path class="st20" d="M2028.3,537.2c7-2,12.9,9.2,3.6,11.7s-8.5-10.3-3.6-11.7Z"/>
  <path class="st26" d="M2162.6,605.5c8.3-2.2,8.5,10.3,3.6,11.7-7,2-12.9-9.2-3.6-11.7Z"/>
  <path class="st26" d="M1914.7,709.4c8.3-2.2,8.5,10.3,3.6,11.7-7,2-12.9-9.2-3.6-11.7Z"/>
  <path class="st36" d="M621.8,735.1v-10c16.6-2.2,16.3,12.3,0,10Z"/>
  <path class="st89" d="M1849.3,381.3c-3.3,6.7-9.6,16.3-18,16l16-18c.5.9.2,2.3,2,2Z"/>
  <path class="st49" d="M390.1,1524.5c-5.9-8.1,10.2-14.3,11.7-4.6s-9.2,8-11.7,4.6Z"/>
  <path class="st49" d="M622,1052.8c-5.9-8.1,10.2-14.3,11.7-4.6s-9.2,8-11.7,4.6Z"/>
  <path class="st43" d="M316,1310.7c-5.6-8,9.9-14.4,11.9-4.9s-10,7.5-11.9,4.9Z"/>
  <path class="st19" d="M1902.5,1265c7.4-2.3,12.1,5.2,6.8,8.9-7.8,5.5-14.6-6.5-6.8-8.9Z"/>
  <path class="st70" d="M1765.4,301.4c2.3-3,12.8-1.2,11.8,4.7-1.8,10.5-16.1.8-11.8-4.7Z"/>
  <path class="st62" d="M633,387.4c9.5-2.9,11.5,8.4,5.8,9.9s-12.7-7.7-5.8-9.9Z"/>
  <path class="st44" d="M641.8,163.5c1,8.3-1.6,11.1-10,10v-10s10,0,10,0Z"/>
  <path class="st75" d="M685.8,1236.8c4.6,2.8,16.4,3.3,16,10l-22-6c1.9-1.4,4.1-2.6,6-4Z"/>
  <path class="st65" d="M302,323.3h-10c-1.7-13.9,11.8-13.6,10,0Z"/>
  <path class="st53" d="M447.8,987c1.9,2.4-.4,11.9-6.9,9.9-8.4-2.5,2-16.2,6.9-9.9Z"/>
  <path class="st81" d="M1153.7,29.6c2.4-1.9,11.9.4,9.9,6.9s-16.3-2-9.9-6.9Z"/>
  <path class="st45" d="M971.6,1402.8c6.3,5-7.4,15.3-9.9,6.9s7.5-8.8,9.9-6.9Z"/>
  <path class="st63" d="M696.8,1397.2c7-.6,9.2,10,1.8,11.3s-8.8-10.7-1.8-11.3Z"/>
  <path class="st65" d="M627.8,953h-10c-1.7-13.9,11.8-13.6,10,0Z"/>
  <path class="st9" d="M325.9,547.2v-10c13.9-1.7,13.6,11.8,0,10Z"/>
  <path class="st65" d="M74,745.1h-10c-1.7-13.9,11.8-13.6,10,0Z"/>
  <path class="st8" d="M2070.6,1225.1c11.2-3.1,6.9,19.2-5.3,4.7,1.6-1.5,3.1-4.1,5.3-4.7Z"/>
  <path class="st92" d="M612.9,641.2c6-1.3,9.5,10.3,1.9,12s-6.8-10.9-1.9-12Z"/>
  <path class="st8" d="M1916.7,613.5c11.2-3.1,6.9,19.2-5.3,4.7,1.6-1.5,3.1-4.1,5.3-4.7Z"/>
  <path class="st8" d="M791.8,507.2c-.3-2.9-.3-8.9,3-10,9.1-2.8,10.2,13.3-3,10Z"/>
  <path class="st13" d="M949.7,21.5v10c-12.2,2.5-14-12.2,0-10Z"/>
  <path class="st76" d="M1800.4,631.2c9.2-2.6,9.2,12.5,0,10-4-1.1-4-8.8,0-10Z"/>
  <path class="st16" d="M183,1072.9c9.2-2.6,9.2,12.5,0,10s-4-8.8,0-10Z"/>
  <path class="st47" d="M2241.1,379.3c-5.2,6.5-15.4-7.3-4.9-9.9s6.4,8,4.9,9.9Z"/>
  <path class="st3" d="M1205.5,1402.8c6.5,5.2-7.3,15.4-9.9,4.9s8-6.4,9.9-4.9Z"/>
  <path class="st1" d="M186,177.4c4.3,2.5,13.3,2.4,16,8-6,0-14.6,0-18-6,.8-.4,1.5-1.3,2-2Z"/>
  <path class="st1" d="M2357.2,745.1c4.3,2.5,13.3,2.4,16,8-6,0-14.6,0-18-6,.8-.4,1.5-1.3,2-2Z"/>
  <path class="st90" d="M2087.3,43.5c1.8-.2,1.8,1.1,0,4-.1.7.2,1.5,0,2-.8,2.4-7.7,10-10,8,8.7-7.6,7.5-13.9,10-24,0,3.3,0,6.7,0,10Z"/>
  <path class="st73" d="M2367.1,1090.9c-1.1,1.3-4.7,13.9-8,10s3.7-10.5,6-12c.5.8,1.3,1.4,2,2Z"/>
  <path class="st71" d="M1873.3,359.3c-2.7.8-5.9,5.1-10,4,.4-3.2,4.5-4.2,6-6l4,2Z"/>
  <path class="st88" d="M1871.3,1186.9c1.5.6,1.5,2,0,4-4.8,5.1-9.5,10.6-14,16,2.9,2.8,13.2-11.6,16.1-12.9s5.9-.5,7.9-1c-2.4,2.5-6.2,2-9.1,3.9s-19.4,21.2-18.9,11.1,13.4-11.7,14.9-15c2-4.5.7-9.3,1-14,3,1.4,2,5.4,2,8Z"/>
  <path class="st10" d="M2401.1,1066.9c-2.4,1.2-4,5.2-8,4,0-3,5.3-4.8,6-6l2,2Z"/>
  <path class="st7" d="M2527.1,943c-.6,0-3.1,3.3-6,2-.3-2.3,3.6-3.1,4-4l2,2Z"/>
  <path class="st55" d="M222,1400.7l-2-8c.8,3,1.7,3.3,2,8Z"/>
  <path class="st12" d="M2393.1,1076.9v2c-1.1-.4-4,1-4-1,0-2,2.6-.6,4-1Z"/>
  <path class="st78" d="M649.8,1194.8c2.6-.1,3.1,3.8,1,4l-1-2v-2Z"/>
  <path class="st46" d="M1871.3,1190.9c0-1.3,0-2.7,0-4,7.4-8.3,15.1-17.3,22-26-.8,1.3-.8,4.2-2.3,6.7-6.4,10.5-12.4,15.5-19.7,23.3Z"/>
  <path class="st48" d="M1901.3,1148.9c.9-1.3.3-5.9,4-6,1.5,4.2-3,4.5-4,6Z"/>
  <path class="st5" d="M1897.3,1154.9c1.8-3.1,2.4-3.6,4-6-1.6,2.4-1.8,3.2-4,6Z"/>
  <path class="st86" d="M1893.3,1160.9c1.5-2.5,3.3-4.8,4-6-1,1.2-1.9,3.4-4,6Z"/>
  <path class="st11" d="M220,1410.7c-.5.2-1.3,0-2,0-10.4-9.6-21.5-18.3-32-28,11.7,7.6,27.8,14.9,34,28Z"/>
  <path class="st25" d="M180,1376.7c-.6,1.2-1.3,1.2-2,0-1.6-1.2-6.3-1.2-8-5l1-1c3.5.3,6.4,3.8,9,6Z"/>
  <path class="st74" d="M186,1382.7c-.7-.5-3-.6-5.1-1.9s-2.1-3.5-2.9-4.1h2c2.7,2.3,4,4.2,6,6Z"/>
  <path class="st67" d="M2087.3,47.5c.2-1.2,0-2.7,0-4l5-4,1,1-6,7Z"/>
</svg>